<?xml version="1.0" encoding="UTF-8"?>
<svg version="1.1" xmlns="http://www.w3.org/2000/svg" width="322" height="51">
<path d="M0 0 C106.26 0 212.52 0 322 0 C322 16.83 322 33.66 322 51 C215.74 51 109.48 51 0 51 C0 34.17 0 17.34 0 0 Z " fill="#040404" transform="translate(0,0)"/>
<path d="M0 0 C0.33 10.89 0.66 21.78 1 33 C4.465 33.495 4.465 33.495 8 34 C7.67 28.39 7.34 22.78 7 17 C6.01 16.67 5.02 16.34 4 16 C4 15.34 4 14.68 4 14 C6.97 13.34 9.94 12.68 13 12 C13 19.26 13 26.52 13 34 C14.32 34.66 15.64 35.32 17 36 C16.25314941 35.99476318 15.50629883 35.98952637 14.73681641 35.98413086 C11.36621943 35.96339599 7.99563586 35.95035101 4.625 35.9375 C3.449375 35.92912109 2.27375 35.92074219 1.0625 35.91210938 C-0.05898438 35.90888672 -1.18046875 35.90566406 -2.3359375 35.90234375 C-3.37282715 35.89710693 -4.4097168 35.89187012 -5.47802734 35.88647461 C-7.9959668 35.82859185 -7.9959668 35.82859185 -10 37 C-14.03990348 37.38112297 -16.29321967 37.4240682 -19.8125 35.3125 C-23.04909193 31.89095996 -23.78238782 29.28149397 -24.5625 24.6875 C-23.76424964 19.45452541 -20.92133248 16.4427116 -17 13 C-14.24921116 12.08307039 -12.64051087 11.89113917 -9.8125 11.9375 C-7.9253125 11.9684375 -7.9253125 11.9684375 -6 12 C-6 9.36 -6 6.72 -6 4 C-7.32 4 -8.64 4 -10 4 C-10 3.34 -10 2.68 -10 2 C-3.375 0 -3.375 0 0 0 Z " fill="#F2F2F2" transform="translate(263,5)"/>
<path d="M0 0 C0 11.22 0 22.44 0 34 C0.99 34 1.98 34 3 34 C3 34.66 3 35.32 3 36 C-0.66666667 36 -4.33333333 36 -8 36 C-9.485 36.495 -9.485 36.495 -11 37 C-14.43197645 37.51803418 -16.85208417 37.79953089 -19.7890625 35.75390625 C-22.88684502 32.57537585 -24.40518235 29.90965224 -24.625 25.4375 C-24.30353827 21.0491736 -22.93859285 18.33569999 -20 15 C-16.05989069 11.80531678 -12.99379386 11.6231099 -8 12 C-7.34 12.33 -6.68 12.66 -6 13 C-6 10.03 -6 7.06 -6 4 C-7.32 4 -8.64 4 -10 4 C-10 3.34 -10 2.68 -10 2 C-6.38026598 0.68373308 -3.90432869 0 0 0 Z " fill="#EAEAEA" transform="translate(236,5)"/>
<path d="M0 0 C0 11.22 0 22.44 0 34 C0.99 34 1.98 34 3 34 C3 34.66 3 35.32 3 36 C2.22914062 35.98839844 1.45828125 35.97679687 0.6640625 35.96484375 C-0.33882812 35.95582031 -1.34171875 35.94679687 -2.375 35.9375 C-3.87160156 35.92009766 -3.87160156 35.92009766 -5.3984375 35.90234375 C-7.98432453 35.81993398 -7.98432453 35.81993398 -10 37 C-14.07909806 37.38482057 -16.29089873 37.44121857 -19.8125 35.25 C-23.22176454 31.7433279 -23.89676702 30.06674084 -24.375 25.125 C-24.25402647 20.79414779 -22.84802823 18.30987065 -20 15 C-16.05989069 11.80531678 -12.99379386 11.6231099 -8 12 C-7.34 12.33 -6.68 12.66 -6 13 C-6 10.03 -6 7.06 -6 4 C-7.32 4 -8.64 4 -10 4 C-10 3.34 -10 2.68 -10 2 C-3.375 0 -3.375 0 0 0 Z " fill="#E6E6E6" transform="translate(88,5)"/>
<path d="M0 0 C0.33 10.89 0.66 21.78 1 33 C2.485 33.495 2.485 33.495 4 34 C4 34.66 4 35.32 4 36 C0.33333333 36 -3.33333333 36 -7 36 C-8.485 36.495 -8.485 36.495 -10 37 C-14.15960211 37.38514834 -16.29849613 37.44225244 -19.875 35.1875 C-23.47343925 31.4832243 -23.45080025 27.52101809 -23.421875 22.58203125 C-22.72737432 18.33142985 -20.31226839 15.63530842 -17 13 C-13.49852959 11.8328432 -10.67329964 11.86642547 -7 12 C-6.34 12.33 -5.68 12.66 -5 13 C-5.33 10.36 -5.66 7.72 -6 5 C-6.99 4.67 -7.98 4.34 -9 4 C-9 3.34 -9 2.68 -9 2 C-3.375 0 -3.375 0 0 0 Z " fill="#F3F3F3" transform="translate(161,5)"/>
<path d="M0 0 C5.61 0 11.22 0 17 0 C17 0.66 17 1.32 17 2 C15.35 2 13.7 2 12 2 C12.05196482 5.8969135 12.14706478 9.79162586 12.25 13.6875 C12.26417969 14.79029297 12.27835938 15.89308594 12.29296875 17.02929688 C12.45626113 23.41472102 12.45626113 23.41472102 14.83203125 29.23828125 C16.9885651 31.29809285 16.9885651 31.29809285 20.4375 31.5 C24.15954903 30.97760715 26.08257155 30.33394276 29 28 C30.92086912 24.92894481 31.2391072 22.60679047 31.1953125 19.015625 C31.18886719 18.08105469 31.18242187 17.14648438 31.17578125 16.18359375 C31.15902344 15.21550781 31.14226562 14.24742188 31.125 13.25 C31.11597656 12.26644531 31.10695312 11.28289063 31.09765625 10.26953125 C31.07412785 7.84610593 31.04125368 5.42317778 31 3 C29.68 2.67 28.36 2.34 27 2 C27 1.34 27 0.68 27 0 C30.96 0 34.92 0 39 0 C37.68 1.32 36.36 2.64 35 4 C34.44362781 6.50014772 34.44362781 6.50014772 34.56640625 9.2109375 C34.5519043 10.70753906 34.5519043 10.70753906 34.53710938 12.234375 C34.55397359 14.32034837 34.57477731 16.40629377 34.59960938 18.4921875 C34.5054725 27.08633072 34.5054725 27.08633072 31.71484375 30.6015625 C26.85936903 34.89114736 23.75698727 35.33680146 17.40234375 35.1875 C13.26965192 34.86494844 10.90602513 33.75502094 7.75 31.125 C4.79669066 27.53883866 4.87716573 24.11016795 4.90234375 19.578125 C4.90556641 18.55332031 4.90878906 17.52851563 4.91210938 16.47265625 C4.92048828 15.40917969 4.92886719 14.34570312 4.9375 13.25 C4.94201172 12.17105469 4.94652344 11.09210937 4.95117188 9.98046875 C4.96294273 7.32025617 4.97938601 4.66015635 5 2 C3.35 2 1.7 2 0 2 C0 1.34 0 0.68 0 0 Z " fill="#E5E5E5" transform="translate(175,7)"/>
<path d="M0 0 C0.96808594 -0.01417969 1.93617187 -0.02835937 2.93359375 -0.04296875 C5.5625 0.1875 5.5625 0.1875 8.5625 2.1875 C8.97093923 4.89953652 8.69586867 7.4312142 8.5625 10.1875 C7.9025 10.1875 7.2425 10.1875 6.5625 10.1875 C5.9025 8.2075 5.2425 6.2275 4.5625 4.1875 C3.12609829 3.99176392 1.68830496 3.80622184 0.25 3.625 C-0.55050781 3.52058594 -1.35101563 3.41617187 -2.17578125 3.30859375 C-4.60567116 3.03994822 -4.60567116 3.03994822 -7.4375 4.1875 C-7.93919415 7.01823436 -7.93919415 7.01823436 -7.4375 10.1875 C-5.37911161 11.97504781 -3.82861564 12.98024396 -1.4375 14.1875 C-0.58285156 14.62320312 0.27179687 15.05890625 1.15234375 15.5078125 C2.92428388 16.39759592 4.70270566 17.2746247 6.48828125 18.13671875 C8.5625 19.1875 8.5625 19.1875 9.5625 20.1875 C10.7813175 28.51865758 10.7813175 28.51865758 8.29296875 31.92578125 C4.17271149 35.32424161 1.39306367 36.32645593 -3.8125 36.3125 C-4.76898438 36.31507812 -5.72546875 36.31765625 -6.7109375 36.3203125 C-9.4375 36.1875 -9.4375 36.1875 -13.4375 35.1875 C-13.7675 31.8875 -14.0975 28.5875 -14.4375 25.1875 C-11.4375 26.1875 -11.4375 26.1875 -9.6875 29.1875 C-7.67887921 32.50890771 -7.67887921 32.50890771 -3.9375 33.125 C-1.10437323 33.17559155 0.92812315 33.13587567 3.5625 32.1875 C4.06375283 28.85607722 4.06375283 28.85607722 3.5625 25.1875 C1.0312274 22.97263647 -1.4895785 21.63914621 -4.51171875 20.19921875 C-11.83483622 16.69332702 -11.83483622 16.69332702 -13.4375 13.1875 C-14 9.75 -14 9.75 -13.4375 6.1875 C-9.62174132 1.62492617 -5.77544013 0.03834954 0 0 Z " fill="#EDEDED" transform="translate(28.4375,5.8125)"/>
<path d="M0 0 C0 0.99 0 1.98 0 3 C0.70125 2.505 1.4025 2.01 2.125 1.5 C5.51250333 -0.26739304 7.2335258 -0.6277457 11 0 C13.71022422 2.01183555 15.71574721 3.57873605 16.40087891 7.00439453 C16.49169596 9.29308584 16.43710108 11.52559101 16.3125 13.8125 C16.28994141 14.60076172 16.26738281 15.38902344 16.24414062 16.20117188 C16.18554161 18.13493929 16.09586827 20.06772167 16 22 C16.99 22 17.98 22 19 22 C19 22.66 19 23.32 19 24 C15.04 24 11.08 24 7 24 C7 23.34 7 22.68 7 22 C7.99 22 8.98 22 10 22 C9.85978195 19.35375716 9.71310224 16.70815422 9.5625 14.0625 C9.52318359 13.30775391 9.48386719 12.55300781 9.44335938 11.77539062 C9.55961976 8.08055813 9.55961976 8.08055813 8 5 C5 4.83333333 5 4.83333333 2 5 C-0.05922402 7.05922402 0.58572421 11.21708124 0.4375 14.0625 C0.39431641 14.82111328 0.35113281 15.57972656 0.30664062 16.36132812 C0.20026367 18.24065438 0.09960066 20.12030244 0 22 C0.99 22 1.98 22 3 22 C3 22.66 3 23.32 3 24 C-0.96 24 -4.92 24 -9 24 C-8.67 23.34 -8.34 22.68 -8 22 C-7.34 22 -6.68 22 -6 22 C-6 16.06 -6 10.12 -6 4 C-7.32 4 -8.64 4 -10 4 C-10 3.34 -10 2.68 -10 2 C-6.38026598 0.68373308 -3.90432869 0 0 0 Z " fill="#E3E3E3" transform="translate(290,17)"/>
<path d="M0 0 C2.66015625 1.453125 2.66015625 1.453125 5 4 C5.61804236 7.1037456 5.47240516 10.10109836 5.3125 13.25 C5.28994141 14.09046875 5.26738281 14.9309375 5.24414062 15.796875 C5.18537714 17.86534964 5.09569885 19.93290488 5 22 C5.99 22.33 6.98 22.66 8 23 C5 25 5 25 2.3125 24.625 C1.1678125 24.315625 1.1678125 24.315625 0 24 C0 23.34 0 22.68 0 22 C-0.886875 22.495 -1.77375 22.99 -2.6875 23.5 C-5.90943677 24.95899023 -7.549703 25.55950762 -11 25 C-12.8125 23.875 -12.8125 23.875 -14 22 C-14.64203555 16.86371558 -14.64203555 16.86371558 -12.80078125 14.38671875 C-10.50856564 12.62156356 -8.6522046 12.29193065 -5.8125 11.8125 C-4.91144531 11.65394531 -4.01039062 11.49539062 -3.08203125 11.33203125 C-2.39496094 11.22246094 -1.70789062 11.11289062 -1 11 C-1.66 8.69 -2.32 6.38 -3 4 C-5.44480079 4.18828772 -5.44480079 4.18828772 -8 5 C-9.36020151 6.96758273 -9.36020151 6.96758273 -10 9 C-11.32 9 -12.64 9 -14 9 C-13.9375 6.75 -13.9375 6.75 -13 4 C-8.69488857 0.87668386 -5.43855981 -0.94583649 0 0 Z " fill="#EAEAEA" transform="translate(55,17)"/>
<path d="M0 0 C2.64384758 1.40002432 3.91656648 2.71330468 6 5 C6 6.65 6 8.3 6 10 C0.72 10 -4.56 10 -10 10 C-8.79669283 16.20268524 -8.79669283 16.20268524 -5 20 C-1.14353614 20.2804701 2.30516081 20.18234854 6 19 C6 19.66 6 20.32 6 21 C0.69312872 24.53791419 -2.59511555 25.92974129 -9 25 C-12.31099903 22.40878337 -14.41864258 19.87432567 -16 16 C-16.24137178 11.50243923 -15.55333627 7.89678637 -13.1875 4.0625 C-8.97883353 0.09432876 -5.84545405 -0.70548583 0 0 Z " fill="#E9E9E9" transform="translate(130,17)"/>
<path d="M0 0 C2.875 1.625 2.875 1.625 5 4 C5.33 5.98 5.66 7.96 6 10 C0.72 10 -4.56 10 -10 10 C-9.54625 11.464375 -9.0925 12.92875 -8.625 14.4375 C-8.36976562 15.26121094 -8.11453125 16.08492187 -7.8515625 16.93359375 C-7.19117773 19.17798016 -7.19117773 19.17798016 -5 20 C-1.16063232 20.1421988 2.32016639 20.17754676 6 19 C2.375 23.875 2.375 23.875 -1 25 C-7.66138265 25.87362395 -7.66138265 25.87362395 -10.85546875 23.7890625 C-14.18592904 20.41904805 -15.3992543 17.61622281 -15.5625 12.875 C-15.29461066 8.86274829 -14.72099599 6.09630578 -12 3 C-8.07857948 -0.15892208 -4.96726332 -0.62090792 0 0 Z " fill="#EDEDED" transform="translate(107,17)"/>
<path d="M0 0 C0 11.22 0 22.44 0 34 C0.99 34 1.98 34 3 34 C3 34.66 3 35.32 3 36 C0.36 36 -2.28 36 -5 36 C-6.43509221 33.12981559 -6.11158506 30.66456277 -6.09765625 27.4609375 C-6.09282227 25.50800781 -6.09282227 25.50800781 -6.08789062 23.515625 C-6.07953466 22.13541601 -6.07106971 20.75520768 -6.0625 19.375 C-6.05748501 17.98698074 -6.0529221 16.59895978 -6.04882812 15.2109375 C-6.03700976 11.80724868 -6.02053434 8.40364561 -6 5 C-7.32 4.67 -8.64 4.34 -10 4 C-10 3.34 -10 2.68 -10 2 C-3.375 0 -3.375 0 0 0 Z " fill="#EAEAEA" transform="translate(88,5)"/>
<path d="M0 0 C2.4375 0.6875 2.4375 0.6875 4.4375 1.6875 C4.4375 6.9675 4.4375 12.2475 4.4375 17.6875 C1.38766004 19.21241998 -1.2048369 18.92312548 -4.5625 18.6875 C-6.64768206 17.13460095 -7.43959981 16.10287154 -8.1796875 13.6015625 C-8.61087925 9.77310244 -8.84752209 7.35730191 -7.3125 3.75 C-5.01085659 1.03734884 -3.66515659 -0.44697032 0 0 Z " fill="#0B0B0B" transform="translate(151.5625,19.3125)"/>
<path d="M0 0 C3.375 0.4375 3.375 0.4375 5.375 2.4375 C5.51997985 5.01814129 5.56177545 7.48693884 5.5 10.0625 C5.49097656 10.76890625 5.48195313 11.4753125 5.47265625 12.203125 C5.44907603 13.94806098 5.41320461 15.69282295 5.375 17.4375 C2.32516004 18.96241998 -0.2673369 18.67312548 -3.625 18.4375 C-6.24093153 16.60634793 -6.59489455 15.52781634 -7.625 12.4375 C-7.99769894 8.41235144 -7.97622109 6.09779564 -6.0625 2.5 C-3.625 0.4375 -3.625 0.4375 0 0 Z " fill="#0C0C0C" transform="translate(252.625,19.5625)"/>
<path d="M0 0 C0.66 0.33 1.32 0.66 2 1 C2.02684679 3.64590014 2.04676357 6.29153096 2.0625 8.9375 C2.07087891 9.69224609 2.07925781 10.44699219 2.08789062 11.22460938 C2.09652441 13.14994313 2.05224333 15.07535581 2 17 C1 18 1 18 -2.375 18.1875 C-6 18 -6 18 -9 16 C-10.60092914 11.19721257 -10.89789627 6.16551453 -8.9375 1.4375 C-5.99331646 -0.74689424 -3.5547293 -0.32315721 0 0 Z " fill="#070707" transform="translate(228,20)"/>
<path d="M0 0 C0.66 0.33 1.32 0.66 2 1 C2.02684679 3.64590014 2.04676357 6.29153096 2.0625 8.9375 C2.07087891 9.69224609 2.07925781 10.44699219 2.08789062 11.22460938 C2.09652441 13.14994313 2.05224333 15.07535581 2 17 C1 18 1 18 -2.3125 18.375 C-6 18 -6 18 -8.4375 16.0625 C-10.54765866 11.92658903 -10.67997775 8.55585092 -10 4 C-7.95794909 -0.92494632 -4.91978178 -0.44725289 0 0 Z " fill="#040404" transform="translate(80,20)"/>
<path d="M0 0 C0.33 0 0.66 0 1 0 C1 2.64 1 5.28 1 8 C0.30132812 8.25394531 -0.39734375 8.50789063 -1.1171875 8.76953125 C-2.02726563 9.11371094 -2.93734375 9.45789062 -3.875 9.8125 C-4.77992188 10.14894531 -5.68484375 10.48539063 -6.6171875 10.83203125 C-9.29425849 11.89649024 -9.29425849 11.89649024 -11 15 C-11.34029771 18.67521523 -11.18582735 21.41774097 -10.0625 24.9375 C-7.55593899 27.44406101 -6.75197868 27.30168403 -3.3125 27.3125 C-1.87347107 27.23217143 -0.43489809 27.13536774 1 27 C1 27.99 1 28.98 1 30 C-3.13236205 32.00356948 -6.42561479 32.4901127 -11 32 C-14.94237155 29.63457707 -16.85997429 27.45646413 -18 23 C-18.63606292 19.25429612 -18.6784169 17.01762535 -16.5390625 13.80859375 C-11.85551746 8.28517249 -11.85551746 8.28517249 -8 7 C-6.60560336 6.93334624 -5.20830125 6.91461801 -3.8125 6.9375 C-1.9253125 6.9684375 -1.9253125 6.9684375 0 7 C0 4.69 0 2.38 0 0 Z " fill="#DCDCDC" transform="translate(257,10)"/>
<path d="M0 0 C-0.33 0.99 -0.66 1.98 -1 3 C-3.32206525 3.70491267 -5.65593068 4.37212429 -8 5 C-9.17635297 7.35270593 -9.13359359 8.820752 -9.125 11.4375 C-9.12757813 12.21996094 -9.13015625 13.00242187 -9.1328125 13.80859375 C-9.08382548 16.17895347 -9.08382548 16.17895347 -8 19 C-5.71294169 20.14352916 -4.40735238 20.10334439 -1.875 20.0625 C-0.59625 20.041875 0.6825 20.02125 2 20 C1.1875 21.9375 1.1875 21.9375 0 24 C-3.7272844 25.24242813 -6.08140751 25.53133458 -10 25 C-13.41851685 22.61898062 -15.58496292 19.8312323 -16.51171875 15.7421875 C-16.7730902 10.42463049 -15.58324149 7.06746331 -12 3 C-8.05062318 -0.20219742 -4.99834992 -0.29402058 0 0 Z " fill="#E2E2E2" transform="translate(228,17)"/>
<path d="M0 0 C2.33205508 3.49808262 2.08349099 4.90894125 2 9 C2.43941523 11.26566343 2.43941523 11.26566343 3 13 C2.030625 12.979375 1.06125 12.95875 0.0625 12.9375 C-2.87465895 12.64381501 -2.87465895 12.64381501 -4 14 C-7.79473981 14.35799432 -10.13657281 14.56804421 -13.375 12.4375 C-15 10 -15 10 -16 3 C-10.72 3 -5.44 3 0 3 C0 2.01 0 1.02 0 0 Z " fill="#0C0C0C" transform="translate(113,24)"/>
<path d="M0 0 C0 0.33 0 0.66 0 1 C-1.11375 1.12375 -1.11375 1.12375 -2.25 1.25 C-5.74600961 2.20345717 -6.91425032 3.02035761 -9 6 C-10.16941196 10.25602313 -10.33937709 13.81218019 -9.125 18.0625 C-6.57005849 20.3920055 -5.67899721 20.29129372 -2.3125 20.3125 C-0.87347107 20.23217143 0.56510191 20.13536774 2 20 C1.1875 21.9375 1.1875 21.9375 0 24 C-3.60572704 25.20190901 -6.2102435 25.32670315 -10 25 C-13.38939556 22.86320715 -14.72582557 21.8225233 -16 18 C-16.5945053 13.69548063 -16.96192644 9.69554756 -14.765625 5.82421875 C-10.27427628 0.45461124 -7.01521508 -0.13236255 0 0 Z " fill="#E6E6E6" transform="translate(154,17)"/>
<path d="M0 0 C3.8560152 -0.44837386 5.50656199 -0.36147203 8.6875 1.96875 C11.79770685 6.04564277 11.58304834 8.84689731 11.3125 13.8125 C11.27866211 14.99489258 11.27866211 14.99489258 11.24414062 16.20117188 C11.18554161 18.13493929 11.09586827 20.06772167 11 22 C11.99 22 12.98 22 14 22 C14 22.66 14 23.32 14 24 C10.04 24 6.08 24 2 24 C2 23.34 2 22.68 2 22 C2.99 22 3.98 22 5 22 C4.96691357 19.41324275 4.89971107 16.83502562 4.8125 14.25 C4.80669922 13.52039062 4.80089844 12.79078125 4.79492188 12.0390625 C4.63063149 8.02307529 4.35876499 6.3538203 1.44921875 3.484375 C0.64097656 2.99453125 -0.16726563 2.5046875 -1 2 C-0.67 1.34 -0.34 0.68 0 0 Z " fill="#E6E6E6" transform="translate(295,17)"/>
<path d="M0 0 C0 3.3 0 6.6 0 10 C-6.64136126 13.70680628 -6.64136126 13.70680628 -11 13 C-12.8125 11.875 -12.8125 11.875 -14 10 C-14.38273002 6.93815985 -14.56479824 4.93025592 -12.9375 2.25 C-8.57940159 -0.5616764 -4.98548035 -1.24637009 0 0 Z " fill="#E2E2E2" transform="translate(55,29)"/>
<path d="M0 0 C2.875 1.625 2.875 1.625 5 4 C5.33 5.98 5.66 7.96 6 10 C0.72 9.67 -4.56 9.34 -10 9 C-10.33 8.01 -10.66 7.02 -11 6 C-11.99 6.66 -12.98 7.32 -14 8 C-13.07870137 4.90108642 -12.32841931 3.27211886 -9.8125 1.1875 C-6.23589622 -0.32262159 -3.8516359 -0.48145449 0 0 Z " fill="#E8E8E8" transform="translate(107,17)"/>
<path d="M0 0 C2.65012537 1.39146016 3.91600114 2.71268418 6 5 C6 6.65 6 8.3 6 10 C0.72 9.67 -4.56 9.34 -10 9 C-9 5 -9 5 -7 2 C-7.66 1.67 -8.32 1.34 -9 1 C-5.85088521 -0.57455739 -3.47991184 -0.34799118 0 0 Z " fill="#D7D7D7" transform="translate(130,17)"/>
<path d="M0 0 C3.96 0 7.92 0 12 0 C10.68 1.32 9.36 2.64 8 4 C7.39961211 6.26836009 7.39961211 6.26836009 7.4609375 8.6953125 C7.42613281 10.01595703 7.42613281 10.01595703 7.390625 11.36328125 C7.38546875 12.27464844 7.3803125 13.18601562 7.375 14.125 C7.34954079 15.94024133 7.31607877 17.7553935 7.2734375 19.5703125 C7.26747559 20.37227051 7.26151367 21.17422852 7.25537109 22.00048828 C7 24 7 24 5 26 C4.67 18.41 4.34 10.82 4 3 C2.68 2.67 1.36 2.34 0 2 C0 1.34 0 0.68 0 0 Z " fill="#F7F7F7" transform="translate(202,7)"/>
<path d="M0 0 C4.01778372 1.33926124 4.78023848 3.49134469 7 7 C9.76223278 9.76223278 12.20706617 9.57856291 16 10 C16 10.33 16 10.66 16 11 C14.25008666 11.02715383 12.50005055 11.04646551 10.75 11.0625 C9.28820312 11.07990234 9.28820312 11.07990234 7.796875 11.09765625 C5 11 5 11 1 10 C0.67 6.7 0.34 3.4 0 0 Z " fill="#DBDBDB" transform="translate(14,31)"/>
<path d="M0 0 C0.04241723 2.33294775 0.04092937 4.66702567 0 7 C-1 8 -1 8 -4.0625 8.0625 C-5.031875 8.041875 -6.00125 8.02125 -7 8 C-7.33 6.35 -7.66 4.7 -8 3 C-4.93882432 0.37613513 -4.26826873 0 0 0 Z " fill="#171717" transform="translate(54,30)"/>
<path d="M0 0 C1.77049689 -0.05410687 3.54146849 -0.09284119 5.3125 -0.125 C6.29863281 -0.14820313 7.28476562 -0.17140625 8.30078125 -0.1953125 C11 0 11 0 14 2 C14.40843923 4.71203652 14.13336867 7.2437142 14 10 C13.34 10 12.68 10 12 10 C11.5978125 8.5459375 11.5978125 8.5459375 11.1875 7.0625 C10.795625 6.051875 10.40375 5.04125 10 4 C9.01 3.67 8.02 3.34 7 3 C7 2.34 7 1.68 7 1 C4.69 1 2.38 1 0 1 C0 0.67 0 0.34 0 0 Z " fill="#CDCDCD" transform="translate(23,6)"/>
<path d="M0 0 C2.625 0.375 2.625 0.375 5 1 C5.33 2.65 5.66 4.3 6 6 C3.03 6 0.06 6 -3 6 C-2 2 -2 2 0 0 Z " fill="#0E0E0E" transform="translate(124,19)"/>
<path d="M0 0 C2.625 0.375 2.625 0.375 5 1 C5.33 2.65 5.66 4.3 6 6 C3.03 6 0.06 6 -3 6 C-2 2 -2 2 0 0 Z " fill="#101010" transform="translate(101,19)"/>
<path d="M0 0 C0.33 0 0.66 0 1 0 C1.0270043 1.45823212 1.04639787 2.91660675 1.0625 4.375 C1.07410156 5.18710938 1.08570312 5.99921875 1.09765625 6.8359375 C1 9 1 9 0 11 C-3.3 11 -6.6 11 -10 11 C-10.33 10.01 -10.66 9.02 -11 8 C-8.01405576 6.50702788 -5.29146376 6.88244772 -2 7 C-1.34 7.33 -0.68 7.66 0 8 C0 5.36 0 2.72 0 0 Z " fill="#CFCFCF" transform="translate(82,10)"/>
<path d="M0 0 C0.556875 0.391875 1.11375 0.78375 1.6875 1.1875 C1.06875 1.435 0.45 1.6825 -0.1875 1.9375 C-2.66318687 3.39378639 -3.26375002 4.56562506 -4.3125 7.1875 C-5.6325 7.1875 -6.9525 7.1875 -8.3125 7.1875 C-8.125 4.875 -8.125 4.875 -7.3125 2.1875 C-3.3125 -1.16385135 -3.3125 -1.16385135 0 0 Z " fill="#DCDCDC" transform="translate(49.3125,18.8125)"/>
<path d="M0 0 C3.96 0 7.92 0 12 0 C10.02 2.31 8.04 4.62 6 7 C5.34 5.68 4.68 4.36 4 3 C1.94999129 2.19471111 1.94999129 2.19471111 0 2 C0 1.34 0 0.68 0 0 Z " fill="#EDEDED" transform="translate(202,7)"/>
<path d="M0 0 C0.99 0.33 1.98 0.66 3 1 C2.01 2.98 1.02 4.96 0 7 C2.97 7 5.94 7 9 7 C9 7.33 9 7.66 9 8 C5.7 8 2.4 8 -1 8 C-1.33 7.01 -1.66 6.02 -2 5 C-2.99 5.66 -3.98 6.32 -5 7 C-3.75023244 3.34683329 -3.32901247 2.21934164 0 0 Z " fill="#C0C0C0" transform="translate(98,18)"/>
<path d="M0 0 C1.65 0.33 3.3 0.66 5 1 C4.67 2.65 4.34 4.3 4 6 C2.35 5.67 0.7 5.34 -1 5 C-0.67 3.35 -0.34 1.7 0 0 Z " fill="#E8E8E8" transform="translate(312,36)"/>
<path d="M0 0 C1.65 0.33 3.3 0.66 5 1 C4.67 2.65 4.34 4.3 4 6 C2.35 5.67 0.7 5.34 -1 5 C-0.67 3.35 -0.34 1.7 0 0 Z " fill="#F0F0F0" transform="translate(271,6)"/>
<path d="M0 0 C0 0.66 0 1.32 0 2 C-3.46153846 5 -3.46153846 5 -6 5 C-6 4.34 -6 3.68 -6 3 C-7.32 2.67 -8.64 2.34 -10 2 C-3.375 0 -3.375 0 0 0 Z " fill="#CFCFCF" transform="translate(136,36)"/>
<path d="M0 0 C0.33 0.99 0.66 1.98 1 3 C2.65 2.34 4.3 1.68 6 1 C6.66 1.99 7.32 2.98 8 4 C5.69 4.66 3.38 5.32 1 6 C0 5 0 5 -0.0625 2.4375 C-0.041875 1.633125 -0.02125 0.82875 0 0 Z " fill="#C9C9C9" transform="translate(289,17)"/>
<path d="M0 0 C0.99 0 1.98 0 3 0 C2.67 1.65 2.34 3.3 2 5 C0.35 5.33 -1.3 5.66 -3 6 C-2.01 4.02 -1.02 2.04 0 0 Z " fill="#D3D3D3" transform="translate(206,31)"/>
</svg>
